<?xml version="1.0" encoding="utf-8"?>
<!-- Generator: Adobe Illustrator 24.3.0, SVG Export Plug-In . SVG Version: 6.00 Build 0)  -->
<svg version="1.1" id="图层_1" xmlns="http://www.w3.org/2000/svg" xmlns:xlink="http://www.w3.org/1999/xlink" x="0px" y="0px"
	 viewBox="0 0 687 681" style="enable-background:new 0 0 687 681;" xml:space="preserve">
<style type="text/css">
	.st0{fill-rule:evenodd;clip-rule:evenodd;fill:#A5A5A5;fill-opacity:0.502;}
	.st1{fill-rule:evenodd;clip-rule:evenodd;fill:#E1E1E1;fill-opacity:0.502;}
	.st2{fill-rule:evenodd;clip-rule:evenodd;fill:#F0F0F0;fill-opacity:0.502;}
	.st3{fill:none;stroke:#FFFFFF;stroke-width:1.3333;stroke-linejoin:round;stroke-miterlimit:10;}
	.st4{fill:none;stroke:#FFFFFF;stroke-width:4;stroke-linejoin:round;stroke-miterlimit:10;}
	.st5{font-family:'Arial-BoldMT';}
	.st6{font-size:17px;}
	.st7{font-family:'ArialMT';}
	.st8{font-size:16px;}
	.st9{enable-background:new    ;}
</style>
<g transform="translate(-16 -408)">
	<path class="st0" d="M17.3,413.8h173.6v38.5H17.3V413.8z"/>
	<path class="st0" d="M190.9,413.8h207.4v38.5H190.9V413.8z"/>
	<path class="st0" d="M398.3,413.8h301.6v38.5H398.3V413.8z"/>
	<path class="st1" d="M17.3,452.3h173.6v38.5H17.3V452.3z"/>
	<path class="st1" d="M190.9,452.3h207.4v38.5H190.9V452.3z"/>
	<path class="st1" d="M398.3,452.3h301.6v38.5H398.3V452.3z"/>
	<path class="st2" d="M17.3,490.7h173.6v38.5H17.3V490.7z"/>
	<path class="st2" d="M190.9,490.7h207.4v38.5H190.9V490.7z"/>
	<path class="st2" d="M398.3,490.7h301.6v38.5H398.3V490.7z"/>
	<path class="st1" d="M17.3,529.2h173.6v38.5H17.3V529.2z"/>
	<path class="st1" d="M190.9,529.2h207.4v38.5H190.9V529.2z"/>
	<path class="st1" d="M398.3,529.2h301.6v38.5H398.3V529.2z"/>
	<path class="st2" d="M17.3,567.7h173.6v57.6H17.3V567.7z"/>
	<path class="st2" d="M190.9,567.7h207.4v57.6H190.9V567.7z"/>
	<path class="st2" d="M398.3,567.7h301.6v57.6H398.3V567.7z"/>
	<path class="st1" d="M17.3,625.3h173.6v38.5H17.3V625.3z"/>
	<path class="st1" d="M190.9,625.3h207.4v38.5H190.9V625.3z"/>
	<path class="st1" d="M398.3,625.3h301.6v38.5H398.3V625.3z"/>
	<path class="st2" d="M17.3,663.8h173.6v38.5H17.3V663.8z"/>
	<path class="st2" d="M190.9,663.8h207.4v38.5H190.9V663.8z"/>
	<path class="st2" d="M398.3,663.8h301.6v38.5H398.3V663.8z"/>
	<path class="st1" d="M17.3,702.3h173.6v38.5H17.3V702.3z"/>
	<path class="st1" d="M190.9,702.3h207.4v38.5H190.9V702.3z"/>
	<path class="st1" d="M398.3,702.3h301.6v38.5H398.3V702.3z"/>
	<path class="st2" d="M17.3,740.8h173.6v38.5H17.3V740.8z"/>
	<path class="st2" d="M190.9,740.8h207.4v38.5H190.9V740.8z"/>
	<path class="st2" d="M398.3,740.8h301.6v38.5H398.3V740.8z"/>
	<path class="st1" d="M17.3,779.3h173.6v38.5H17.3V779.3z"/>
	<path class="st1" d="M190.9,779.3h207.4v38.5H190.9V779.3z"/>
	<path class="st1" d="M398.3,779.3h301.6v38.5H398.3V779.3z"/>
	<path class="st2" d="M17.3,817.8h173.6v38.5H17.3V817.8z"/>
	<path class="st2" d="M190.9,817.8h207.4v38.5H190.9V817.8z"/>
	<path class="st2" d="M398.3,817.8h301.6v38.5H398.3V817.8z"/>
	<path class="st1" d="M17.3,856.2h173.6v38.5H17.3V856.2z"/>
	<path class="st1" d="M190.9,856.2h207.4v38.5H190.9V856.2z"/>
	<path class="st1" d="M398.3,856.2h301.6v38.5H398.3V856.2z"/>
	<path class="st2" d="M17.3,894.7h173.6v76.8H17.3V894.7z"/>
	<path class="st2" d="M190.9,894.7h207.4v76.8H190.9V894.7z"/>
	<path class="st2" d="M398.3,894.7h301.6v76.8H398.3V894.7z"/>
	<path class="st1" d="M17.3,971.5h173.6v38.5H17.3V971.5z"/>
	<path class="st1" d="M190.9,971.5h207.4v38.5H190.9V971.5z"/>
	<path class="st1" d="M398.3,971.5h301.6v38.5H398.3V971.5z"/>
	<path class="st2" d="M17.3,1010h173.6v38.5H17.3V1010z"/>
	<path class="st2" d="M190.9,1010h207.4v38.5H190.9V1010z"/>
	<path class="st2" d="M398.3,1010h301.6v38.5H398.3V1010z"/>
	<path class="st1" d="M17.3,1048.5h682.6v38.5H17.3V1048.5z"/>
	<path class="st3" d="M190.9,413.1v636.1"/>
	<path class="st3" d="M398.3,413.1v636.1"/>
	<path class="st4" d="M16.6,452.3h684"/>
	<path class="st3" d="M16.6,490.7h684"/>
	<path class="st3" d="M16.6,529.2h684"/>
	<path class="st3" d="M16.6,567.7h684"/>
	<path class="st3" d="M16.6,625.3h684"/>
	<path class="st3" d="M16.6,663.8h684"/>
	<path class="st3" d="M16.6,702.3h684"/>
	<path class="st3" d="M16.6,740.8h684"/>
	<path class="st3" d="M16.6,779.3h684"/>
	<path class="st3" d="M16.6,817.8h684"/>
	<path class="st3" d="M16.6,856.2h684"/>
	<path class="st3" d="M16.6,894.7h684"/>
	<path class="st3" d="M16.6,971.5h684"/>
	<path class="st3" d="M16.6,1010h684"/>
	<path class="st3" d="M16.6,1048.5h684"/>
	<path class="st3" d="M17.3,413.1v674.6"/>
	<path class="st3" d="M699.9,413.1v674.6"/>
	<path class="st3" d="M16.6,413.8h684"/>
	<path class="st3" d="M16.6,1087h684"/>
	<g>
		<text transform="matrix(1 0 0 1 398.329 430)" class="st5 st6">Parameter concepts</text>
	</g>
	<g>
		<text transform="matrix(1 0 0 1 190.9187 430)" class="st5 st6">“oncoClassSurv” parameter</text>
	</g>
	<g>
		<text transform="matrix(1 0 0 1 17.2971 430)" class="st5 st6">Panel parameter</text>
	</g>
	<g>
		<text transform="matrix(1 0 0 1 398.329 467)" class="st7 st8">Expression of the training cohort</text>
	</g>
	<g>
		<text transform="matrix(1 0 0 1 190.919 467)" class="st7 st8">train.exp.path</text>
	</g>
	<g>
		<text transform="matrix(1 0 0 1 17.2971 467)" class="st9"><tspan x="0" y="0" class="st7 st8">Expression profile for </tspan><tspan x="0" y="19.2" class="st7 st8">training</tspan></text>
	</g>
	<g>
		<text transform="matrix(1 0 0 1 398.329 506)" class="st7 st8">Expression of the user’s cohort</text>
	</g>
	<g>
		<text transform="matrix(1 0 0 1 190.919 506)" class="st7 st8">input.exp.path</text>
	</g>
	<g>
		<text transform="matrix(1 0 0 1 17.2971 506)" class="st9"><tspan x="0" y="0" class="st7 st8">Expression profile for </tspan><tspan x="0" y="19.2" class="st7 st8">input</tspan></text>
	</g>
	<g>
		<text transform="matrix(1 0 0 1 398.329 544)" class="st9"><tspan x="0" y="0" class="st7 st8">Known classifications and or survival data </tspan><tspan x="0" y="19.2" class="st7 st8">in the training cohort</tspan></text>
	</g>
	<g>
		<text transform="matrix(1 0 0 1 190.919 544)" class="st7 st8">train.clin.path</text>
	</g>
	<g>
		<text transform="matrix(1 0 0 1 17.2971 544)" class="st7 st8">Clinical data for training</text>
	</g>
	<g>
		<text transform="matrix(1 0 0 1 398.329 583)" class="st9"><tspan x="0" y="0" class="st7 st8">If “task” equals 2 or 3, and clinical </tspan><tspan x="0" y="19.2" class="st7 st8">covariates (age, stage, etc.) are concerned, </tspan><tspan x="0" y="38.4" class="st7 st8">please upload corresponding files.</tspan></text>
	</g>
	<g>
		<text transform="matrix(1 0 0 1 190.919 583)" class="st7 st8">input.clin.path</text>
	</g>
	<g>
		<text transform="matrix(1 0 0 1 17.2971 583)" class="st7 st8">Clinical data for input</text>
	</g>
	<g>
		<text transform="matrix(1 0 0 1 398.329 640)" class="st7 st8">Known classification-specific genes</text>
	</g>
	<g>
		<text transform="matrix(1 0 0 1 190.919 640)" class="st7 st8">train_cluster.feature.path</text>
	</g>
	<g>
		<text transform="matrix(1 0 0 1 17.2971 640)" class="st7 st8">Marker genes</text>
	</g>
	<g>
		<text transform="matrix(1 0 0 1 398.329 679)" class="st9"><tspan x="0" y="0" class="st7 st8">Covariates (genes or clinical factors) </tspan><tspan x="0" y="19.2" class="st7 st8">involved in the prognostic model</tspan></text>
	</g>
	<g>
		<text transform="matrix(1 0 0 1 190.919 679)" class="st7 st8">train_survival.feature.path</text>
	</g>
	<g>
		<text transform="matrix(1 0 0 1 17.2971 679)" class="st7 st8">Prognostic features</text>
	</g>
	<g>
		<text transform="matrix(1 0 0 1 398.329 717)" class="st9"><tspan x="0" y="0" class="st7 st8">Select samples that the user wants to plot</tspan><tspan x="0" y="19.2" class="st7 st8">survival curves.</tspan></text>
	</g>
	<g>
		<text transform="matrix(1 0 0 1 190.919 717)" class="st7 st8">plot.samples</text>
	</g>
	<g>
		<text transform="matrix(1 0 0 1 17.2971 717)" class="st7 st8">SurvSample</text>
	</g>
	<g>
		<text transform="matrix(1 0 0 1 398.329 756)" class="st9"><tspan x="0" y="0" class="st7 st8">Breakpoint of the survival curve horizontal</tspan><tspan x="0" y="19.2" class="st7 st8">axis (survival time).</tspan></text>
	</g>
	<g>
		<text transform="matrix(1 0 0 1 190.919 756)" class="st7 st8">survcurve.break.x.by</text>
	</g>
	<g>
		<text transform="matrix(1 0 0 1 17.2971 756)" class="st7 st8">S</text>
	</g>
	<g>
		<text transform="matrix(1 0 0 1 24.6304 756)" class="st7 st8">urvBreak</text>
	</g>
	<g>
		<text transform="matrix(1 0 0 1 398.329 794)" class="st7 st8">The unit of survival time.</text>
	</g>
	<g>
		<text transform="matrix(1 0 0 1 190.919 794)" class="st7 st8">survtime.unit</text>
	</g>
	<g>
		<text transform="matrix(1 0 0 1 17.2971 794)" class="st7 st8">SurvUnit</text>
	</g>
	<g>
		<text transform="matrix(1 0 0 1 398.329 833)" class="st9"><tspan x="0" y="0" class="st7 st8">The size of the legend text in the survival </tspan><tspan x="0" y="19.2" class="st7 st8">curves plot.</tspan></text>
	</g>
	<g>
		<text transform="matrix(1 0 0 1 17.2971 833)" class="st7 st8">LegendSize</text>
	</g>
	<g>
		<text transform="matrix(1 0 0 1 398.329 871)" class="st9"><tspan x="0" y="0" class="st7 st8">Select one of the three options: “Default”, </tspan><tspan x="0" y="19.2" class="st7 st8">“Upload”, or “Text”.</tspan></text>
	</g>
	<g>
		<text transform="matrix(1 0 0 1 17.2971 871)" class="st7 st8">Heat Map Geneset</text>
	</g>
	<g>
		<text transform="matrix(1 0 0 1 398.329 910)" class="st9"><tspan x="0" y="0" class="st7 st8">Explore the genes using the default. </tspan><tspan x="0" y="19.2" class="st7 st8">“Marker” equals “Marker genes” as the </tspan><tspan x="0" y="38.4" class="st7 st8">user’s upload or the default HCC cluster-</tspan><tspan x="0" y="57.6" class="st7 st8">specific “Marker genes”.</tspan></text>
	</g>
	<g>
	</g>
	<g>
		<text transform="matrix(1 0 0 1 190.919 910)" class="st7 st8">Abbreviated as &quot;Default&quot;</text>
	</g>
	<g>
		<text transform="matrix(1 0 0 1 17.2971 910)" class="st7 st8">DefaultGeneset</text>
	</g>
	<g>
		<text transform="matrix(1 0 0 1 398.329 987)" class="st9"><tspan x="0" y="0" class="st7 st8">Explore the genes using the user’s upload </tspan><tspan x="0" y="19.2" class="st7 st8">file.</tspan></text>
	</g>
	<g>
		<text transform="matrix(1 0 0 1 190.919 987)" class="st7 st8">Abbreviated as &quot;Upload&quot;</text>
	</g>
	<g>
		<text transform="matrix(1 0 0 1 17.2971 987)" class="st7 st8">UploadGeneset</text>
	</g>
	<g>
		<text transform="matrix(1 0 0 1 398.329 1025)" class="st9"><tspan x="0" y="0" class="st7 st8">Explore the genes using input text. Use </tspan><tspan x="0" y="19.2" class="st7 st8">commas or semicolons to separate.</tspan></text>
	</g>
	<g>
		<text transform="matrix(1 0 0 1 190.919 1025)" class="st7 st8">Abbreviated as &quot;Text&quot;</text>
	</g>
	<g>
		<text transform="matrix(1 0 0 1 17.2971 1025)" class="st9"><tspan x="0" y="0" class="st7 st8">Explore interesting </tspan><tspan x="0" y="19.2" class="st7 st8">genes</tspan></text>
	</g>
	<g>
		<text transform="matrix(1 0 0 1 17.2971 1074)" class="st7 st8">For more information on parameters, please see the document of the “oncoClassSurv” package.</text>
	</g>
</g>
</svg>
