<svg width="687" height="681" xmlns="http://www.w3.org/2000/svg" xmlns:xlink="http://www.w3.org/1999/xlink" overflow="hidden"><defs><clipPath id="clip0"><rect x="398" y="664" width="302" height="538"/></clipPath></defs><g transform="translate(-16 -408)"><path d="M17.2971 413.77 190.919 413.77 190.919 452.258 17.2971 452.258Z" fill="#A5A5A5" fill-rule="evenodd"/><path d="M190.919 413.77 398.329 413.77 398.329 452.258 190.919 452.258Z" fill="#A5A5A5" fill-rule="evenodd"/><path d="M398.329 413.77 699.943 413.77 699.943 452.258 398.329 452.258Z" fill="#A5A5A5" fill-rule="evenodd"/><path d="M17.2971 452.258 190.919 452.258 190.919 490.746 17.2971 490.746Z" fill="#E1E1E1" fill-rule="evenodd"/><path d="M190.919 452.258 398.329 452.258 398.329 490.746 190.919 490.746Z" fill="#E1E1E1" fill-rule="evenodd"/><path d="M398.329 452.258 699.943 452.258 699.943 490.746 398.329 490.746Z" fill="#E1E1E1" fill-rule="evenodd"/><path d="M17.2971 490.746 190.919 490.746 190.919 529.234 17.2971 529.234Z" fill="#F0F0F0" fill-rule="evenodd"/><path d="M190.919 490.746 398.329 490.746 398.329 529.234 190.919 529.234Z" fill="#F0F0F0" fill-rule="evenodd"/><path d="M398.329 490.746 699.943 490.746 699.943 529.234 398.329 529.234Z" fill="#F0F0F0" fill-rule="evenodd"/><path d="M17.2971 529.234 190.919 529.234 190.919 567.722 17.2971 567.722Z" fill="#E1E1E1" fill-rule="evenodd"/><path d="M190.919 529.234 398.329 529.234 398.329 567.722 190.919 567.722Z" fill="#E1E1E1" fill-rule="evenodd"/><path d="M398.329 529.234 699.943 529.234 699.943 567.722 398.329 567.722Z" fill="#E1E1E1" fill-rule="evenodd"/><path d="M17.2971 567.722 190.919 567.722 190.919 625.322 17.2971 625.322Z" fill="#F0F0F0" fill-rule="evenodd"/><path d="M190.919 567.722 398.329 567.722 398.329 625.322 190.919 625.322Z" fill="#F0F0F0" fill-rule="evenodd"/><path d="M398.329 567.722 699.943 567.722 699.943 625.322 398.329 625.322Z" fill="#F0F0F0" fill-rule="evenodd"/><path d="M17.2971 625.322 190.919 625.322 190.919 663.81 17.2971 663.81Z" fill="#E1E1E1" fill-rule="evenodd"/><path d="M190.919 625.322 398.329 625.322 398.329 663.81 190.919 663.81Z" fill="#E1E1E1" fill-rule="evenodd"/><path d="M398.329 625.322 699.943 625.322 699.943 663.81 398.329 663.81Z" fill="#E1E1E1" fill-rule="evenodd"/><path d="M17.2971 663.81 190.919 663.81 190.919 702.298 17.2971 702.298Z" fill="#F0F0F0" fill-rule="evenodd"/><path d="M190.919 663.81 398.329 663.81 398.329 702.298 190.919 702.298Z" fill="#F0F0F0" fill-rule="evenodd"/><path d="M398.329 663.81 699.943 663.81 699.943 702.298 398.329 702.298Z" fill="#F0F0F0" fill-rule="evenodd"/><path d="M17.2971 702.298 190.919 702.298 190.919 740.786 17.2971 740.786Z" fill="#E1E1E1" fill-rule="evenodd"/><path d="M190.919 702.298 398.329 702.298 398.329 740.786 190.919 740.786Z" fill="#E1E1E1" fill-rule="evenodd"/><path d="M398.329 702.298 699.943 702.298 699.943 740.786 398.329 740.786Z" fill="#E1E1E1" fill-rule="evenodd"/><path d="M17.2971 740.786 190.919 740.786 190.919 779.273 17.2971 779.273Z" fill="#F0F0F0" fill-rule="evenodd"/><path d="M190.919 740.786 398.329 740.786 398.329 779.273 190.919 779.273Z" fill="#F0F0F0" fill-rule="evenodd"/><path d="M398.329 740.786 699.943 740.786 699.943 779.273 398.329 779.273Z" fill="#F0F0F0" fill-rule="evenodd"/><path d="M17.2971 779.273 190.919 779.273 190.919 817.761 17.2971 817.761Z" fill="#E1E1E1" fill-rule="evenodd"/><path d="M190.919 779.273 398.329 779.273 398.329 817.761 190.919 817.761Z" fill="#E1E1E1" fill-rule="evenodd"/><path d="M398.329 779.273 699.943 779.273 699.943 817.761 398.329 817.761Z" fill="#E1E1E1" fill-rule="evenodd"/><path d="M17.2971 817.761 190.919 817.761 190.919 856.249 17.2971 856.249Z" fill="#F0F0F0" fill-rule="evenodd"/><path d="M190.919 817.761 398.329 817.761 398.329 856.249 190.919 856.249Z" fill="#F0F0F0" fill-rule="evenodd"/><path d="M398.329 817.761 699.943 817.761 699.943 856.249 398.329 856.249Z" fill="#F0F0F0" fill-rule="evenodd"/><path d="M17.2971 856.249 190.919 856.249 190.919 894.737 17.2971 894.737Z" fill="#E1E1E1" fill-rule="evenodd"/><path d="M190.919 856.249 398.329 856.249 398.329 894.737 190.919 894.737Z" fill="#E1E1E1" fill-rule="evenodd"/><path d="M398.329 856.249 699.943 856.249 699.943 894.737 398.329 894.737Z" fill="#E1E1E1" fill-rule="evenodd"/><path d="M17.2971 894.737 190.919 894.737 190.919 971.537 17.2971 971.537Z" fill="#F0F0F0" fill-rule="evenodd"/><path d="M190.919 894.737 398.329 894.737 398.329 971.537 190.919 971.537Z" fill="#F0F0F0" fill-rule="evenodd"/><path d="M398.329 894.737 699.943 894.737 699.943 971.537 398.329 971.537Z" fill="#F0F0F0" fill-rule="evenodd"/><path d="M17.2971 971.537 190.919 971.537 190.919 1010.02 17.2971 1010.02Z" fill="#E1E1E1" fill-rule="evenodd"/><path d="M190.919 971.537 398.329 971.537 398.329 1010.02 190.919 1010.02Z" fill="#E1E1E1" fill-rule="evenodd"/><path d="M398.329 971.537 699.943 971.537 699.943 1010.02 398.329 1010.02Z" fill="#E1E1E1" fill-rule="evenodd"/><path d="M17.2971 1010.02 190.919 1010.02 190.919 1048.51 17.2971 1048.51Z" fill="#F0F0F0" fill-rule="evenodd"/><path d="M190.919 1010.02 398.329 1010.02 398.329 1048.51 190.919 1048.51Z" fill="#F0F0F0" fill-rule="evenodd"/><path d="M398.329 1010.02 699.943 1010.02 699.943 1048.51 398.329 1048.51Z" fill="#F0F0F0" fill-rule="evenodd"/><path d="M17.2971 1048.51 699.943 1048.51 699.943 1087 17.2971 1087Z" fill="#E1E1E1" fill-rule="evenodd"/><path d="M190.919 413.104 190.919 1049.18" stroke="#FFFFFF" stroke-width="1.33333" stroke-linejoin="round" stroke-miterlimit="10" fill="none" fill-rule="evenodd"/><path d="M398.329 413.104 398.329 1049.18" stroke="#FFFFFF" stroke-width="1.33333" stroke-linejoin="round" stroke-miterlimit="10" fill="none" fill-rule="evenodd"/><path d="M16.6304 452.258 700.609 452.258" stroke="#FFFFFF" stroke-width="4" stroke-linejoin="round" stroke-miterlimit="10" fill="none" fill-rule="evenodd"/><path d="M16.6304 490.746 700.609 490.746" stroke="#FFFFFF" stroke-width="1.33333" stroke-linejoin="round" stroke-miterlimit="10" fill="none" fill-rule="evenodd"/><path d="M16.6304 529.234 700.609 529.234" stroke="#FFFFFF" stroke-width="1.33333" stroke-linejoin="round" stroke-miterlimit="10" fill="none" fill-rule="evenodd"/><path d="M16.6304 567.722 700.609 567.722" stroke="#FFFFFF" stroke-width="1.33333" stroke-linejoin="round" stroke-miterlimit="10" fill="none" fill-rule="evenodd"/><path d="M16.6304 625.322 700.609 625.322" stroke="#FFFFFF" stroke-width="1.33333" stroke-linejoin="round" stroke-miterlimit="10" fill="none" fill-rule="evenodd"/><path d="M16.6304 663.81 700.609 663.81" stroke="#FFFFFF" stroke-width="1.33333" stroke-linejoin="round" stroke-miterlimit="10" fill="none" fill-rule="evenodd"/><path d="M16.6304 702.298 700.609 702.298" stroke="#FFFFFF" stroke-width="1.33333" stroke-linejoin="round" stroke-miterlimit="10" fill="none" fill-rule="evenodd"/><path d="M16.6304 740.786 700.609 740.786" stroke="#FFFFFF" stroke-width="1.33333" stroke-linejoin="round" stroke-miterlimit="10" fill="none" fill-rule="evenodd"/><path d="M16.6304 779.273 700.609 779.273" stroke="#FFFFFF" stroke-width="1.33333" stroke-linejoin="round" stroke-miterlimit="10" fill="none" fill-rule="evenodd"/><path d="M16.6304 817.761 700.609 817.761" stroke="#FFFFFF" stroke-width="1.33333" stroke-linejoin="round" stroke-miterlimit="10" fill="none" fill-rule="evenodd"/><path d="M16.6304 856.249 700.609 856.249" stroke="#FFFFFF" stroke-width="1.33333" stroke-linejoin="round" stroke-miterlimit="10" fill="none" fill-rule="evenodd"/><path d="M16.6304 894.737 700.609 894.737" stroke="#FFFFFF" stroke-width="1.33333" stroke-linejoin="round" stroke-miterlimit="10" fill="none" fill-rule="evenodd"/><path d="M16.6304 971.537 700.609 971.537" stroke="#FFFFFF" stroke-width="1.33333" stroke-linejoin="round" stroke-miterlimit="10" fill="none" fill-rule="evenodd"/><path d="M16.6304 1010.02 700.609 1010.02" stroke="#FFFFFF" stroke-width="1.33333" stroke-linejoin="round" stroke-miterlimit="10" fill="none" fill-rule="evenodd"/><path d="M16.6304 1048.51 700.609 1048.51" stroke="#FFFFFF" stroke-width="1.33333" stroke-linejoin="round" stroke-miterlimit="10" fill="none" fill-rule="evenodd"/><path d="M17.2971 413.104 17.2971 1087.67" stroke="#FFFFFF" stroke-width="1.33333" stroke-linejoin="round" stroke-miterlimit="10" fill="none" fill-rule="evenodd"/><path d="M699.943 413.104 699.943 1087.67" stroke="#FFFFFF" stroke-width="1.33333" stroke-linejoin="round" stroke-miterlimit="10" fill="none" fill-rule="evenodd"/><path d="M16.6304 413.77 700.609 413.77" stroke="#FFFFFF" stroke-width="1.33333" stroke-linejoin="round" stroke-miterlimit="10" fill="none" fill-rule="evenodd"/><path d="M16.6304 1087 700.609 1087" stroke="#FFFFFF" stroke-width="1.33333" stroke-linejoin="round" stroke-miterlimit="10" fill="none" fill-rule="evenodd"/><g><text font-family="Calibri,Calibri_MSFontService,sans-serif" font-weight="700" font-size="17" transform="translate(398.329 430)">Parameter concepts</text></g><g><text font-family="Calibri,Calibri_MSFontService,sans-serif" font-weight="700" font-size="17" transform="translate(190.919 430)">“</text></g><g><text font-family="Calibri,Calibri_MSFontService,sans-serif" font-weight="700" font-size="17" transform="translate(197.826 430)">oncoClassSurv</text></g><g><text font-family="Calibri,Calibri_MSFontService,sans-serif" font-weight="700" font-size="17" transform="translate(301.232 430)">” parameter</text></g><g><text font-family="Calibri,Calibri_MSFontService,sans-serif" font-weight="700" font-size="17" transform="translate(17.2971 430)">Panel parameter</text></g><g><text font-family="Calibri,Calibri_MSFontService,sans-serif" font-weight="400" font-size="16" transform="translate(398.329 467)">Expression of the training cohort</text></g><g><text font-family="Calibri,Calibri_MSFontService,sans-serif" font-weight="400" font-size="16" transform="translate(190.919 467)">train.exp.path</text></g><g><text font-family="Calibri,Calibri_MSFontService,sans-serif" font-weight="400" font-size="16" transform="translate(17.2971 467)">Expression profile for</text></g><g><text font-family="Calibri,Calibri_MSFontService,sans-serif" font-weight="400" font-size="16" transform="translate(17.2971 486)">training</text></g><g><text font-family="Calibri,Calibri_MSFontService,sans-serif" font-weight="400" font-size="16" transform="translate(398.329 506)">Expression of the user’s cohort</text></g><g><text font-family="Calibri,Calibri_MSFontService,sans-serif" font-weight="400" font-size="16" transform="translate(190.919 506)">input.exp.path</text></g><g><text font-family="Calibri,Calibri_MSFontService,sans-serif" font-weight="400" font-size="16" transform="translate(17.2971 506)">Expression profile for</text></g><g><text font-family="Calibri,Calibri_MSFontService,sans-serif" font-weight="400" font-size="16" transform="translate(17.2971 525)">input</text></g><g><text font-family="Calibri,Calibri_MSFontService,sans-serif" font-weight="400" font-size="16" transform="translate(398.329 544)">Known classifications and or survival data in</text></g><g><text font-family="Calibri,Calibri_MSFontService,sans-serif" font-weight="400" font-size="16" transform="translate(398.329 563)">the training cohort</text></g><g><text font-family="Calibri,Calibri_MSFontService,sans-serif" font-weight="400" font-size="16" transform="translate(190.919 544)">train.clin.path</text></g><g><text font-family="Calibri,Calibri_MSFontService,sans-serif" font-weight="400" font-size="16" transform="translate(17.2971 544)">Clinical data for training</text></g><g><text font-family="Calibri,Calibri_MSFontService,sans-serif" font-weight="400" font-size="16" transform="translate(398.329 583)">If “task” equals 2 or 3, and clinical covariates</text></g><g><text font-family="Calibri,Calibri_MSFontService,sans-serif" font-weight="400" font-size="16" transform="translate(398.329 602)">(age, stage, etc.) are concerned, upload</text></g><g><text font-family="Calibri,Calibri_MSFontService,sans-serif" font-weight="400" font-size="16" transform="translate(398.329 621)">corresponding files.</text></g><g><text font-family="Calibri,Calibri_MSFontService,sans-serif" font-weight="400" font-size="16" transform="translate(190.919 583)">input.clin.path</text></g><g><text font-family="Calibri,Calibri_MSFontService,sans-serif" font-weight="400" font-size="16" transform="translate(17.2971 583)">Clinical data for input</text></g><g><text font-family="Calibri,Calibri_MSFontService,sans-serif" font-weight="400" font-size="16" transform="translate(398.329 640)">Known classification</text></g><text font-family="Calibri,Calibri_MSFontService,sans-serif" font-weight="400" font-size="16" transform="translate(529.736 640)">-</text><text font-family="Calibri,Calibri_MSFontService,sans-serif" font-weight="400" font-size="16" transform="translate(534.569 640)">specific genes</text><g><text font-family="Calibri,Calibri_MSFontService,sans-serif" font-weight="400" font-size="16" transform="translate(190.919 640)">train_cluster.feature.path</text></g><g><text font-family="Calibri,Calibri_MSFontService,sans-serif" font-weight="400" font-size="16" transform="translate(17.2971 640)">Marker genes</text></g><g><text font-family="Calibri,Calibri_MSFontService,sans-serif" font-weight="400" font-size="16" transform="translate(398.329 679)">Covariates (genes or clinical factors) involved</text></g><g><text font-family="Calibri,Calibri_MSFontService,sans-serif" font-weight="400" font-size="16" transform="translate(398.329 698)">in the prognostic model</text></g><g><text font-family="Calibri,Calibri_MSFontService,sans-serif" font-weight="400" font-size="16" transform="translate(190.919 679)">train_survival.feature.path</text></g><g><text font-family="Calibri,Calibri_MSFontService,sans-serif" font-weight="400" font-size="16" transform="translate(17.2971 679)">Prognostic features</text></g><g><text font-family="Calibri,Calibri_MSFontService,sans-serif" font-weight="400" font-size="16" transform="translate(398.329 717)">Select samples that the user wants to plot</text></g><g><text font-family="Calibri,Calibri_MSFontService,sans-serif" font-weight="400" font-size="16" transform="translate(398.329 736)">survival curves.</text></g><g><text font-family="Calibri,Calibri_MSFontService,sans-serif" font-weight="400" font-size="16" transform="translate(190.919 717)">plot.samples</text></g><g><text font-family="Calibri,Calibri_MSFontService,sans-serif" font-weight="400" font-size="16" transform="translate(17.2971 717)">Surv.Sample</text></g><g><text font-family="Calibri,Calibri_MSFontService,sans-serif" font-weight="400" font-size="16" transform="translate(398.329 756)">Breakpoint of the survival curve horizontal</text></g><g><text font-family="Calibri,Calibri_MSFontService,sans-serif" font-weight="400" font-size="16" transform="translate(398.329 775)">axis (survival time).</text></g><g><text font-family="Calibri,Calibri_MSFontService,sans-serif" font-weight="400" font-size="16" transform="translate(190.919 756)">survcurve.break.x.by</text></g><g><text font-family="Calibri,Calibri_MSFontService,sans-serif" font-weight="400" font-size="16" transform="translate(17.2971 756)">surv.break</text></g><g><text font-family="Calibri,Calibri_MSFontService,sans-serif" font-weight="400" font-size="16" transform="translate(398.329 794)">The unit of survival time.</text></g><g><text font-family="Calibri,Calibri_MSFontService,sans-serif" font-weight="400" font-size="16" transform="translate(190.919 794)">survtime.unit</text></g><g><text font-family="Calibri,Calibri_MSFontService,sans-serif" font-weight="400" font-size="16" transform="translate(17.2971 794)">SurvUnit</text></g><g><text font-family="Calibri,Calibri_MSFontService,sans-serif" font-weight="400" font-size="16" transform="translate(398.329 833)">The size of the legend text in the survival</text></g><g><text font-family="Calibri,Calibri_MSFontService,sans-serif" font-weight="400" font-size="16" transform="translate(398.329 852)">curves plot.</text></g><g><text font-family="Calibri,Calibri_MSFontService,sans-serif" font-weight="400" font-size="16" transform="translate(17.2971 833)">LegendSize</text></g><g><text font-family="Calibri,Calibri_MSFontService,sans-serif" font-weight="400" font-size="16" transform="translate(398.329 871)">Select one of the three options: “Default”,</text></g><g><text font-family="Calibri,Calibri_MSFontService,sans-serif" font-weight="400" font-size="16" transform="translate(398.329 890)">“Upload”, or “Text”.</text></g><g><text font-family="Calibri,Calibri_MSFontService,sans-serif" font-weight="400" font-size="16" transform="translate(17.2971 871)">Heat Map</text></g><text font-family="Calibri,Calibri_MSFontService,sans-serif" font-weight="400" font-size="16" transform="translate(85.1504 871)">Geneset</text><g><text font-family="Calibri,Calibri_MSFontService,sans-serif" font-weight="400" font-size="16" transform="translate(398.329 910)">Explore the genes using the default. “Marker”</text></g><g clip-path="url(#clip0)"><text font-family="Calibri,Calibri_MSFontService,sans-serif" font-weight="400" font-size="16" transform="translate(398.329 929)">equals “Marker genes” as the user’s upload or</text></g><g><text font-family="Calibri,Calibri_MSFontService,sans-serif" font-weight="400" font-size="16" transform="translate(398.329 948)">the default HCC cluster</text></g><text font-family="Calibri,Calibri_MSFontService,sans-serif" font-weight="400" font-size="16" transform="translate(547.356 948)">-</text><text font-family="Calibri,Calibri_MSFontService,sans-serif" font-weight="400" font-size="16" transform="translate(552.189 948)">specific “Marker</text><g><text font-family="Calibri,Calibri_MSFontService,sans-serif" font-weight="400" font-size="16" transform="translate(398.329 968)">genes”.</text></g><g><text font-family="Calibri,Calibri_MSFontService,sans-serif" font-weight="400" font-size="16" transform="translate(190.919 910)">Abbreviated as "Default"</text></g><g><text font-family="Calibri,Calibri_MSFontService,sans-serif" font-weight="400" font-size="16" transform="translate(17.2971 910)">Default</text></g><text font-family="Calibri,Calibri_MSFontService,sans-serif" font-weight="400" font-size="16" transform="translate(68.1771 910)">Geneset</text><g><text font-family="Calibri,Calibri_MSFontService,sans-serif" font-weight="400" font-size="16" transform="translate(398.329 987)">Explore the genes using the user’s upload file.</text></g><g><text font-family="Calibri,Calibri_MSFontService,sans-serif" font-weight="400" font-size="16" transform="translate(190.919 987)">Abbreviated as "Upload"</text></g><g><text font-family="Calibri,Calibri_MSFontService,sans-serif" font-weight="400" font-size="16" transform="translate(17.2971 987)">Upload</text></g><text font-family="Calibri,Calibri_MSFontService,sans-serif" font-weight="400" font-size="16" transform="translate(67.7971 987)">Geneset</text><g><text font-family="Calibri,Calibri_MSFontService,sans-serif" font-weight="400" font-size="16" transform="translate(398.329 1025)">Explore the genes using the user’s input text.</text></g><g><text font-family="Calibri,Calibri_MSFontService,sans-serif" font-weight="400" font-size="16" transform="translate(398.329 1044)">Use a comma or semicolon separated.</text></g><g><text font-family="Calibri,Calibri_MSFontService,sans-serif" font-weight="400" font-size="16" transform="translate(190.919 1025)">Abbreviated as "Text"</text></g><g><text font-family="Calibri,Calibri_MSFontService,sans-serif" font-weight="400" font-size="16" transform="translate(17.2971 1025)">Explore interesting genes</text></g><g><text font-family="Calibri,Calibri_MSFontService,sans-serif" font-weight="400" font-size="16" transform="translate(17.2971 1064)">For more information on parameters, please see the document</text></g><text font-family="Calibri,Calibri_MSFontService,sans-serif" font-weight="400" font-size="16" transform="translate(430.117 1064)">of the</text><text font-family="Calibri,Calibri_MSFontService,sans-serif" font-weight="400" font-size="16" transform="translate(472.45 1064)">“</text><text font-family="Calibri,Calibri_MSFontService,sans-serif" font-weight="400" font-size="16" transform="translate(478.57 1064)">oncoClassSurv</text><text font-family="Calibri,Calibri_MSFontService,sans-serif" font-weight="400" font-size="16" transform="translate(572.05 1064)">” package.</text></g></svg>